<svg width="16" height="16" viewBox="0 0 16 16" fill="none" xmlns="http://www.w3.org/2000/svg">
<path d="M0 15.3663C0.4448 13.8399 0.888 12.3135 1.3328 10.7871C1.368 10.6655 1.4048 10.5439 1.4368 10.4223C1.488 10.2383 1.584 10.0895 1.7312 9.96634C1.8688 9.85274 1.9904 9.71674 2.1168 9.59034C4.2016 7.52474 6.2864 5.45915 8.3696 3.39195C8.4176 3.34395 8.4592 3.28955 8.4928 3.24795C8.776 3.53275 9.0416 3.79995 9.3376 4.09755C9.3056 4.11995 9.2432 4.15195 9.1952 4.19995C7.0352 6.35515 4.8768 8.51034 2.7216 10.6703C2.6448 10.7487 2.5808 10.8559 2.5504 10.9615C2.2912 11.8175 2.0448 12.6783 1.7888 13.5375C1.7568 13.6447 1.7728 13.7119 1.8544 13.7855C1.9872 13.9055 2.104 14.0431 2.2384 14.1615C2.2848 14.2015 2.3728 14.2319 2.4288 14.2175C3.2896 13.9711 4.1488 13.7199 5.0064 13.4607C5.08 13.4383 5.1488 13.3759 5.2064 13.3167C7.3968 11.1327 9.584 8.94554 11.7712 6.75994C11.8128 6.71835 11.848 6.67195 11.872 6.64474C12.1824 6.95514 12.4832 7.25594 12.8128 7.58554C12.7984 7.59514 12.7408 7.61914 12.7008 7.65914C10.544 9.79514 8.384 11.9263 6.2384 14.0735C5.9392 14.3743 5.6144 14.5599 5.2128 14.6735C3.7888 15.0767 2.3712 15.5023 0.9504 15.9199C0.856 15.9471 0.76 15.9727 0.6656 15.9999H0.5376C0.4688 15.9695 0.3984 15.9423 0.3296 15.9103C0.1376 15.8207 0.072 15.6383 0 15.4607V15.3663ZM4.3024 12.7151C4.2608 12.4495 4.216 12.2063 4.1872 11.9631C4.1728 11.8479 4.1264 11.8015 4.0144 11.7807C3.7408 11.7279 3.4704 11.6591 3.2176 11.6031C5.4864 9.32954 7.7552 7.05434 10.0096 4.79355C10.3696 5.15355 10.7456 5.52795 11.1088 5.88955C8.8624 8.14234 6.5952 10.4159 4.3024 12.7151ZM10.8368 1.02556C11.0416 0.82556 11.2464 0.61276 11.4656 0.414361C12.0944 -0.152038 12.9136 -0.139238 13.5264 0.459161C14.2032 1.11836 14.8704 1.78556 15.5296 2.46236C16.1536 3.10075 16.144 3.95515 15.5216 4.59195C15.3344 4.78395 15.1408 4.97115 14.9616 5.14715C13.592 3.77915 12.224 2.41276 10.8368 1.02556ZM9.168 2.53596C9.4784 2.24476 9.7968 1.94556 10.0992 1.66076C11.5328 3.09435 12.9584 4.52155 14.3968 5.95995C14.0976 6.23995 13.776 6.54235 13.4656 6.83354L9.168 2.53596Z" fill="#A0A4A8"/>
</svg>
